<mxfile host="app.diagrams.net" modified="2024-06-18T23:02:04.294Z" agent="Mozilla/5.0 (Windows NT 10.0; Win64; x64) AppleWebKit/537.36 (KHTML, like Gecko) Chrome/125.0.0.0 Safari/537.36" etag="0ny-uSJctsDI0r90fPCi" version="24.5.5" type="device">
  <diagram name="Page-1" id="CqNwt3TztA1D4tDZatW8">
    <mxGraphModel dx="6563" dy="3088" grid="1" gridSize="10" guides="1" tooltips="1" connect="1" arrows="1" fold="1" page="1" pageScale="1" pageWidth="827" pageHeight="1169" math="0" shadow="0">
      <root>
        <mxCell id="0" />
        <mxCell id="1" parent="0" />
        <mxCell id="h7EgRy8KijaexqdkXfog-39" value="Layers" parent="0" />
        <mxCell id="h7EgRy8KijaexqdkXfog-40" value="" style="rounded=0;whiteSpace=wrap;html=1;" vertex="1" parent="h7EgRy8KijaexqdkXfog-39">
          <mxGeometry x="-200" y="20" width="2130" height="1070" as="geometry" />
        </mxCell>
        <mxCell id="h7EgRy8KijaexqdkXfog-41" value="Common layer" style="text;html=1;align=center;verticalAlign=middle;whiteSpace=wrap;rounded=0;fontSize=27;" vertex="1" parent="h7EgRy8KijaexqdkXfog-39">
          <mxGeometry x="-180" y="40" width="200" height="30" as="geometry" />
        </mxCell>
        <mxCell id="h7EgRy8KijaexqdkXfog-70" value="" style="rounded=0;whiteSpace=wrap;html=1;" vertex="1" parent="h7EgRy8KijaexqdkXfog-39">
          <mxGeometry x="-190" y="1900" width="2130" height="1070" as="geometry" />
        </mxCell>
        <mxCell id="h7EgRy8KijaexqdkXfog-71" value="Application layer" style="text;html=1;align=center;verticalAlign=middle;whiteSpace=wrap;rounded=0;fontSize=27;" vertex="1" parent="h7EgRy8KijaexqdkXfog-39">
          <mxGeometry x="-170" y="1920" width="230" height="30" as="geometry" />
        </mxCell>
        <mxCell id="h7EgRy8KijaexqdkXfog-30" value="Blokovi" parent="0" />
        <mxCell id="h7EgRy8KijaexqdkXfog-42" value="" style="rounded=0;whiteSpace=wrap;html=1;fillColor=#f5f5f5;fontColor=#333333;strokeColor=#666666;" vertex="1" parent="h7EgRy8KijaexqdkXfog-30">
          <mxGeometry x="210" y="60" width="320" height="190" as="geometry" />
        </mxCell>
        <mxCell id="h7EgRy8KijaexqdkXfog-43" value="" style="rounded=0;whiteSpace=wrap;html=1;fillColor=#f5f5f5;fontColor=#333333;strokeColor=#666666;" vertex="1" parent="h7EgRy8KijaexqdkXfog-30">
          <mxGeometry x="720" y="70" width="670" height="290" as="geometry" />
        </mxCell>
        <mxCell id="h7EgRy8KijaexqdkXfog-44" value="" style="rounded=0;whiteSpace=wrap;html=1;fillColor=#f5f5f5;fontColor=#333333;strokeColor=#666666;" vertex="1" parent="h7EgRy8KijaexqdkXfog-30">
          <mxGeometry x="-70" y="480" width="700" height="370" as="geometry" />
        </mxCell>
        <mxCell id="h7EgRy8KijaexqdkXfog-45" value="" style="rounded=0;whiteSpace=wrap;html=1;fillColor=#f5f5f5;fontColor=#333333;strokeColor=#666666;glass=0;shadow=0;" vertex="1" parent="h7EgRy8KijaexqdkXfog-30">
          <mxGeometry x="780" y="490" width="600" height="260" as="geometry" />
        </mxCell>
        <mxCell id="h7EgRy8KijaexqdkXfog-46" value="Entities" parent="0" />
        <mxCell id="h7EgRy8KijaexqdkXfog-47" value="&lt;p style=&quot;margin:0px;margin-top:4px;text-align:center;&quot;&gt;&lt;b&gt;+(s) Constants&lt;/b&gt;&lt;/p&gt;&lt;hr size=&quot;1&quot; style=&quot;border-style:solid;&quot;&gt;&lt;p style=&quot;margin:0px;margin-left:4px;&quot;&gt;+ SOLUTION_NAME: string&lt;/p&gt;&lt;p style=&quot;margin:0px;margin-left:4px;&quot;&gt;+ TOKEN_EXPIRATION_TIME: int&lt;/p&gt;&lt;p style=&quot;margin:0px;margin-left:4px;&quot;&gt;&lt;br&gt;&lt;/p&gt;&lt;p style=&quot;margin:0px;margin-left:4px;&quot;&gt;// Claims&lt;/p&gt;&lt;p style=&quot;margin:0px;margin-left:4px;&quot;&gt;&lt;br&gt;&lt;/p&gt;&lt;p style=&quot;margin:0px;margin-left:4px;&quot;&gt;+ CLAIM_ID: string&lt;/p&gt;&lt;p style=&quot;margin:0px;margin-left:4px;&quot;&gt;+ CLAIM_USERNAME: string&lt;/p&gt;&lt;p style=&quot;margin:0px;margin-left:4px;&quot;&gt;+ CLAIM_ROLES: string&lt;/p&gt;&lt;p style=&quot;margin:0px;margin-left:4px;&quot;&gt;+ CLAIM_EMAIL: string&lt;/p&gt;&lt;hr size=&quot;1&quot; style=&quot;border-style:solid;&quot;&gt;&lt;p style=&quot;margin:0px;margin-left:4px;&quot;&gt;&lt;br&gt;&lt;/p&gt;" style="verticalAlign=top;align=left;overflow=fill;html=1;whiteSpace=wrap;" vertex="1" parent="h7EgRy8KijaexqdkXfog-46">
          <mxGeometry x="-80" y="90" width="220" height="180" as="geometry" />
        </mxCell>
        <mxCell id="h7EgRy8KijaexqdkXfog-48" value="Resources" style="text;html=1;align=center;verticalAlign=middle;whiteSpace=wrap;rounded=0;" vertex="1" parent="h7EgRy8KijaexqdkXfog-46">
          <mxGeometry x="220" y="70" width="60" height="30" as="geometry" />
        </mxCell>
        <mxCell id="h7EgRy8KijaexqdkXfog-49" value="&lt;p style=&quot;margin:0px;margin-top:4px;text-align:center;&quot;&gt;&lt;b&gt;+(s) ResourceValidation&lt;/b&gt;&lt;/p&gt;&lt;hr size=&quot;1&quot; style=&quot;border-style:solid;&quot;&gt;&lt;p style=&quot;margin:0px;margin-left:4px;&quot;&gt;+ Record_Doesnt_Exist: string&lt;/p&gt;&lt;hr size=&quot;1&quot; style=&quot;border-style:solid;&quot;&gt;&lt;p style=&quot;margin:0px;margin-left:4px;&quot;&gt;&lt;br&gt;&lt;/p&gt;" style="verticalAlign=top;align=left;overflow=fill;html=1;whiteSpace=wrap;" vertex="1" parent="h7EgRy8KijaexqdkXfog-46">
          <mxGeometry x="230" y="120" width="230" height="60" as="geometry" />
        </mxCell>
        <mxCell id="h7EgRy8KijaexqdkXfog-50" value="Interfaces" style="text;html=1;align=center;verticalAlign=middle;whiteSpace=wrap;rounded=0;" vertex="1" parent="h7EgRy8KijaexqdkXfog-46">
          <mxGeometry x="730" y="80" width="60" height="30" as="geometry" />
        </mxCell>
        <mxCell id="h7EgRy8KijaexqdkXfog-51" style="edgeStyle=orthogonalEdgeStyle;rounded=0;orthogonalLoop=1;jettySize=auto;html=1;exitX=0;exitY=0.25;exitDx=0;exitDy=0;fillColor=#d5e8d4;strokeColor=#82b366;" edge="1" parent="h7EgRy8KijaexqdkXfog-46" source="h7EgRy8KijaexqdkXfog-53" target="h7EgRy8KijaexqdkXfog-63">
          <mxGeometry relative="1" as="geometry">
            <Array as="points">
              <mxPoint x="750" y="220" />
              <mxPoint x="700" y="220" />
              <mxPoint x="700" y="640" />
            </Array>
          </mxGeometry>
        </mxCell>
        <mxCell id="h7EgRy8KijaexqdkXfog-65" value="eSystemRole" style="edgeLabel;html=1;align=center;verticalAlign=middle;resizable=0;points=[];" vertex="1" connectable="0" parent="h7EgRy8KijaexqdkXfog-51">
          <mxGeometry x="-0.1195" relative="1" as="geometry">
            <mxPoint as="offset" />
          </mxGeometry>
        </mxCell>
        <mxCell id="h7EgRy8KijaexqdkXfog-53" value="&lt;p style=&quot;margin:0px;margin-top:4px;text-align:center;&quot;&gt;&lt;/p&gt;&lt;p style=&quot;margin:0px;margin-left:4px;&quot;&gt;Id: Guid&lt;/p&gt;&lt;p style=&quot;margin:0px;margin-left:4px;&quot;&gt;Email: string&lt;/p&gt;&lt;p style=&quot;margin:0px;margin-left:4px;&quot;&gt;Username: string&lt;/p&gt;&lt;p style=&quot;margin:0px;margin-left:4px;&quot;&gt;Roles: List&amp;lt;eSystemRole&amp;gt;&lt;/p&gt;&lt;p style=&quot;margin:0px;margin-left:4px;&quot;&gt;IsAuthenticated: bool&lt;/p&gt;&lt;p style=&quot;margin:0px;margin-left:4px;&quot;&gt;&lt;br&gt;&lt;/p&gt;&lt;hr size=&quot;1&quot; style=&quot;border-style:solid;&quot;&gt;&lt;p style=&quot;margin:0px;margin-left:4px;&quot;&gt;HasRole(List&amp;lt;eSystemRole&amp;gt;): bool&lt;/p&gt;" style="verticalAlign=top;align=left;overflow=fill;html=1;whiteSpace=wrap;fillColor=#dae8fc;strokeColor=#6c8ebf;" vertex="1" parent="h7EgRy8KijaexqdkXfog-46">
          <mxGeometry x="750" y="170" width="230" height="160" as="geometry" />
        </mxCell>
        <mxCell id="h7EgRy8KijaexqdkXfog-54" value="&lt;p style=&quot;margin:0px;margin-top:4px;text-align:center;&quot;&gt;&lt;br&gt;&lt;/p&gt;&lt;hr size=&quot;1&quot; style=&quot;border-style:solid;&quot;&gt;&lt;p style=&quot;margin:0px;margin-left:4px;&quot;&gt;LogException(Exception): Guid&lt;/p&gt;" style="verticalAlign=top;align=left;overflow=fill;html=1;whiteSpace=wrap;fillColor=#dae8fc;strokeColor=#6c8ebf;" vertex="1" parent="h7EgRy8KijaexqdkXfog-46">
          <mxGeometry x="1010" y="170" width="230" height="90" as="geometry" />
        </mxCell>
        <mxCell id="h7EgRy8KijaexqdkXfog-55" value="Extensions" style="text;html=1;align=center;verticalAlign=middle;whiteSpace=wrap;rounded=0;" vertex="1" parent="h7EgRy8KijaexqdkXfog-46">
          <mxGeometry x="-60" y="490" width="60" height="30" as="geometry" />
        </mxCell>
        <mxCell id="h7EgRy8KijaexqdkXfog-56" value="&lt;p style=&quot;margin:0px;margin-top:4px;text-align:center;&quot;&gt;&lt;b&gt;+(s) StringExtensions&lt;/b&gt;&lt;/p&gt;&lt;hr size=&quot;1&quot; style=&quot;border-style:solid;&quot;&gt;&lt;p style=&quot;margin:0px;margin-left:4px;&quot;&gt;&lt;br&gt;&lt;/p&gt;&lt;hr size=&quot;1&quot; style=&quot;border-style:solid;&quot;&gt;&amp;nbsp;+ HasValue(this string): bool&lt;br&gt;&lt;p style=&quot;margin:0px;margin-left:4px;&quot;&gt;+ AppendArgument(this string, string): string&lt;/p&gt;" style="verticalAlign=top;align=left;overflow=fill;html=1;whiteSpace=wrap;" vertex="1" parent="h7EgRy8KijaexqdkXfog-46">
          <mxGeometry x="-40" y="540" width="270" height="100" as="geometry" />
        </mxCell>
        <mxCell id="h7EgRy8KijaexqdkXfog-57" value="&lt;p style=&quot;margin:0px;margin-top:4px;text-align:center;&quot;&gt;&lt;b&gt;+(s) EnumExtensions&lt;/b&gt;&lt;/p&gt;&lt;hr size=&quot;1&quot; style=&quot;border-style:solid;&quot;&gt;&lt;p style=&quot;margin:0px;margin-left:4px;&quot;&gt;&lt;br&gt;&lt;/p&gt;&lt;hr size=&quot;1&quot; style=&quot;border-style:solid;&quot;&gt;&amp;nbsp;+ GetEnumList&amp;lt;T&amp;gt;(this string): List&amp;lt;T&amp;gt;" style="verticalAlign=top;align=left;overflow=fill;html=1;whiteSpace=wrap;" vertex="1" parent="h7EgRy8KijaexqdkXfog-46">
          <mxGeometry x="270" y="540" width="270" height="90" as="geometry" />
        </mxCell>
        <mxCell id="h7EgRy8KijaexqdkXfog-58" value="&lt;p style=&quot;margin:0px;margin-top:4px;text-align:center;&quot;&gt;&lt;b&gt;+(s) BoolExtensions&lt;/b&gt;&lt;/p&gt;&lt;hr size=&quot;1&quot; style=&quot;border-style:solid;&quot;&gt;&lt;p style=&quot;margin:0px;margin-left:4px;&quot;&gt;&lt;br&gt;&lt;/p&gt;&lt;hr size=&quot;1&quot; style=&quot;border-style:solid;&quot;&gt;&amp;nbsp;+ In&amp;lt;T&amp;gt;(this T, T[]): bool&lt;div&gt;&amp;nbsp;+ In&amp;lt;T&amp;gt;(this T, List&amp;lt;T&amp;gt;): bool&lt;/div&gt;" style="verticalAlign=top;align=left;overflow=fill;html=1;whiteSpace=wrap;" vertex="1" parent="h7EgRy8KijaexqdkXfog-46">
          <mxGeometry x="-40" y="680" width="270" height="100" as="geometry" />
        </mxCell>
        <mxCell id="h7EgRy8KijaexqdkXfog-59" value="Enums" style="text;html=1;align=center;verticalAlign=middle;whiteSpace=wrap;rounded=0;" vertex="1" parent="h7EgRy8KijaexqdkXfog-46">
          <mxGeometry x="790" y="500" width="60" height="30" as="geometry" />
        </mxCell>
        <mxCell id="h7EgRy8KijaexqdkXfog-60" value="«interface»&lt;br&gt;&lt;b&gt;IIdentityUser&lt;/b&gt;" style="html=1;whiteSpace=wrap;fillColor=#dae8fc;strokeColor=#6c8ebf;" vertex="1" parent="h7EgRy8KijaexqdkXfog-46">
          <mxGeometry x="750" y="120" width="230" height="50" as="geometry" />
        </mxCell>
        <mxCell id="h7EgRy8KijaexqdkXfog-61" value="«interface»&lt;br&gt;&lt;b&gt;IExceptionLogger&lt;/b&gt;" style="html=1;whiteSpace=wrap;fillColor=#dae8fc;strokeColor=#6c8ebf;" vertex="1" parent="h7EgRy8KijaexqdkXfog-46">
          <mxGeometry x="1010" y="120" width="230" height="50" as="geometry" />
        </mxCell>
        <mxCell id="h7EgRy8KijaexqdkXfog-62" value="«enumeration»&lt;br&gt;&lt;b&gt;eSystemRole&lt;/b&gt;" style="html=1;whiteSpace=wrap;fillColor=#d5e8d4;strokeColor=#82b366;" vertex="1" parent="h7EgRy8KijaexqdkXfog-46">
          <mxGeometry x="810" y="550" width="150" height="50" as="geometry" />
        </mxCell>
        <mxCell id="h7EgRy8KijaexqdkXfog-63" value="&lt;p style=&quot;margin:0px;margin-top:4px;text-align:center;&quot;&gt;&lt;/p&gt;&lt;p style=&quot;margin:0px;margin-left:4px;&quot;&gt;Admin&lt;/p&gt;&lt;p style=&quot;margin:0px;margin-left:4px;&quot;&gt;UserAdmin&lt;/p&gt;&lt;p style=&quot;margin:0px;margin-left:4px;&quot;&gt;Moderator&lt;/p&gt;&lt;p style=&quot;margin:0px;margin-left:4px;&quot;&gt;Member&lt;/p&gt;" style="verticalAlign=top;align=left;overflow=fill;html=1;whiteSpace=wrap;fillColor=#d5e8d4;strokeColor=#82b366;" vertex="1" parent="h7EgRy8KijaexqdkXfog-46">
          <mxGeometry x="810" y="600" width="150" height="80" as="geometry" />
        </mxCell>
      </root>
    </mxGraphModel>
  </diagram>
</mxfile>
